<svg data-v-423bf9ae="" xmlns="http://www.w3.org/2000/svg" viewBox="0 0 398.4189587440674 192" class="iconAboveSlogan"><!----><!----><!----><g data-v-423bf9ae="" id="c4acb61e-a0e9-45a8-a5f6-2b5d1820dbbf" fill="black" transform="matrix(5.928853821986509,0,0,5.928853821986509,-6.640310507704186,84.50197627706841)"><path d="M3.30 11.17L7.60 11.17L7.60 13.05L1.12 13.05L1.12 3.35L3.30 3.35L3.30 11.17ZM17.84 13.05L15.50 13.05L15.50 13.05Q15.34 12.54 15.16 12.01L15.16 12.01L15.16 12.01Q14.97 11.48 14.78 10.95L14.78 10.95L11.00 10.95L11.00 10.95Q10.82 11.48 10.63 12.01L10.63 12.01L10.63 12.01Q10.44 12.54 10.29 13.05L10.29 13.05L8.02 13.05L8.02 13.05Q8.57 11.48 9.06 10.15L9.06 10.15L9.06 10.15Q9.55 8.82 10.02 7.64L10.02 7.64L10.02 7.64Q10.49 6.47 10.94 5.41L10.94 5.41L10.94 5.41Q11.40 4.35 11.89 3.35L11.89 3.35L13.97 3.35L13.97 3.35Q14.45 4.35 14.91 5.41L14.91 5.41L14.91 5.41Q15.37 6.47 15.84 7.64L15.84 7.64L15.84 7.64Q16.31 8.82 16.80 10.15L16.80 10.15L16.80 10.15Q17.29 11.48 17.84 13.05L17.84 13.05ZM12.88 5.54L12.88 5.54L12.88 5.54Q12.81 5.75 12.67 6.12L12.67 6.12L12.67 6.12Q12.53 6.48 12.35 6.96L12.35 6.96L12.35 6.96Q12.17 7.43 11.95 8.01L11.95 8.01L11.95 8.01Q11.73 8.58 11.51 9.21L11.51 9.21L14.27 9.21L14.27 9.21Q14.04 8.58 13.83 8.01L13.83 8.01L13.83 8.01Q13.62 7.43 13.43 6.96L13.43 6.96L13.43 6.96Q13.24 6.48 13.10 6.12L13.10 6.12L13.10 6.12Q12.96 5.75 12.88 5.54ZM22.65 7.34L22.65 7.34L22.65 7.34Q23.24 6.34 23.77 5.35L23.77 5.35L23.77 5.35Q24.30 4.35 24.75 3.35L24.75 3.35L27.16 3.35L27.16 3.35Q26.36 4.91 25.51 6.38L25.51 6.38L25.51 6.38Q24.65 7.85 23.70 9.34L23.70 9.34L23.70 13.05L21.52 13.05L21.52 9.37L21.52 9.37Q20.57 7.88 19.70 6.40L19.70 6.40L19.70 6.40Q18.84 4.91 18.05 3.35L18.05 3.35L20.58 3.35L20.58 3.35Q21.03 4.35 21.55 5.35L21.55 5.35L21.55 5.35Q22.06 6.34 22.65 7.34ZM33.08 5.03L33.08 5.03L33.08 5.03Q31.56 5.03 30.88 5.87L30.88 5.87L30.88 5.87Q30.20 6.72 30.20 8.19L30.20 8.19L30.20 8.19Q30.20 8.90 30.37 9.48L30.37 9.48L30.37 9.48Q30.53 10.07 30.87 10.49L30.87 10.49L30.87 10.49Q31.21 10.91 31.71 11.14L31.71 11.14L31.71 11.14Q32.21 11.37 32.89 11.37L32.89 11.37L32.89 11.37Q33.25 11.37 33.51 11.35L33.51 11.35L33.51 11.35Q33.77 11.34 33.96 11.30L33.96 11.30L33.96 7.92L36.15 7.92L36.15 12.73L36.15 12.73Q35.76 12.88 34.89 13.05L34.89 13.05L34.89 13.05Q34.02 13.23 32.75 13.23L32.75 13.23L32.75 13.23Q31.65 13.23 30.76 12.89L30.76 12.89L30.76 12.89Q29.88 12.56 29.25 11.91L29.25 11.91L29.25 11.91Q28.62 11.27 28.27 10.33L28.27 10.33L28.27 10.33Q27.93 9.39 27.93 8.19L27.93 8.19L27.93 8.19Q27.93 6.97 28.31 6.03L28.31 6.03L28.31 6.03Q28.69 5.10 29.34 4.45L29.34 4.45L29.34 4.45Q30.00 3.79 30.89 3.46L30.89 3.46L30.89 3.46Q31.78 3.12 32.79 3.12L32.79 3.12L32.79 3.12Q33.47 3.12 34.03 3.21L34.03 3.21L34.03 3.21Q34.58 3.30 34.98 3.42L34.98 3.42L34.98 3.42Q35.38 3.54 35.64 3.67L35.64 3.67L35.64 3.67Q35.90 3.79 36.01 3.86L36.01 3.86L35.38 5.61L35.38 5.61Q34.93 5.38 34.35 5.20L34.35 5.20L34.35 5.20Q33.77 5.03 33.08 5.03ZM40.01 8.19L40.01 8.19L40.01 8.19Q40.01 8.90 40.19 9.48L40.19 9.48L40.19 9.48Q40.36 10.05 40.69 10.46L40.69 10.46L40.69 10.46Q41.02 10.88 41.50 11.10L41.50 11.10L41.50 11.10Q41.97 11.33 42.59 11.33L42.59 11.33L42.59 11.33Q43.19 11.33 43.67 11.10L43.67 11.10L43.67 11.10Q44.16 10.88 44.48 10.46L44.48 10.46L44.48 10.46Q44.81 10.05 44.99 9.48L44.99 9.48L44.99 9.48Q45.16 8.90 45.16 8.19L45.16 8.19L45.16 8.19Q45.16 7.48 44.99 6.89L44.99 6.89L44.99 6.89Q44.81 6.31 44.48 5.90L44.48 5.90L44.48 5.90Q44.16 5.49 43.67 5.26L43.67 5.26L43.67 5.26Q43.19 5.04 42.59 5.04L42.59 5.04L42.59 5.04Q41.97 5.04 41.50 5.27L41.50 5.27L41.50 5.27Q41.02 5.50 40.69 5.92L40.69 5.92L40.69 5.92Q40.36 6.33 40.19 6.91L40.19 6.91L40.19 6.91Q40.01 7.49 40.01 8.19ZM47.42 8.19L47.42 8.19L47.42 8.19Q47.42 9.44 47.05 10.38L47.05 10.38L47.05 10.38Q46.68 11.33 46.03 11.96L46.03 11.96L46.03 11.96Q45.39 12.60 44.50 12.92L44.50 12.92L44.50 12.92Q43.61 13.24 42.59 13.24L42.59 13.24L42.59 13.24Q41.59 13.24 40.71 12.92L40.71 12.92L40.71 12.92Q39.83 12.60 39.17 11.96L39.17 11.96L39.17 11.96Q38.51 11.33 38.14 10.38L38.14 10.38L38.14 10.38Q37.76 9.44 37.76 8.19L37.76 8.19L37.76 8.19Q37.76 6.94 38.15 6.00L38.15 6.00L38.15 6.00Q38.54 5.05 39.21 4.41L39.21 4.41L39.21 4.41Q39.87 3.77 40.75 3.44L40.75 3.44L40.75 3.44Q41.62 3.12 42.59 3.12L42.59 3.12L42.59 3.12Q43.58 3.12 44.46 3.44L44.46 3.44L44.46 3.44Q45.35 3.77 46.00 4.41L46.00 4.41L46.00 4.41Q46.66 5.05 47.04 6.00L47.04 6.00L47.04 6.00Q47.42 6.94 47.42 8.19ZM57.58 13.05L55.75 13.05L55.75 13.05Q54.81 11.38 53.72 9.76L53.72 9.76L53.72 9.76Q52.63 8.13 51.39 6.69L51.39 6.69L51.39 13.05L49.24 13.05L49.24 3.35L51.02 3.35L51.02 3.35Q51.48 3.81 52.04 4.48L52.04 4.48L52.04 4.48Q52.60 5.15 53.18 5.92L53.18 5.92L53.18 5.92Q53.76 6.68 54.33 7.50L54.33 7.50L54.33 7.50Q54.91 8.32 55.41 9.07L55.41 9.07L55.41 3.35L57.58 3.35L57.58 13.05ZM62.01 5.14L62.01 11.27L62.01 11.27Q62.16 11.28 62.36 11.29L62.36 11.29L62.36 11.29Q62.57 11.30 62.85 11.30L62.85 11.30L62.85 11.30Q64.48 11.30 65.28 10.47L65.28 10.47L65.28 10.47Q66.07 9.65 66.07 8.19L66.07 8.19L66.07 8.19Q66.07 6.66 65.31 5.88L65.31 5.88L65.31 5.88Q64.55 5.10 62.92 5.10L62.92 5.10L62.92 5.10Q62.69 5.10 62.45 5.10L62.45 5.10L62.45 5.10Q62.22 5.11 62.01 5.14L62.01 5.14ZM68.32 8.19L68.32 8.19L68.32 8.19Q68.32 9.45 67.93 10.39L67.93 10.39L67.93 10.39Q67.54 11.33 66.81 11.94L66.81 11.94L66.81 11.94Q66.09 12.56 65.06 12.87L65.06 12.87L65.06 12.87Q64.02 13.17 62.73 13.17L62.73 13.17L62.73 13.17Q62.15 13.17 61.36 13.13L61.36 13.13L61.36 13.13Q60.58 13.08 59.82 12.92L59.82 12.92L59.82 3.47L59.82 3.47Q60.58 3.33 61.40 3.28L61.40 3.28L61.40 3.28Q62.22 3.23 62.80 3.23L62.80 3.23L62.80 3.23Q64.05 3.23 65.06 3.51L65.06 3.51L65.06 3.51Q66.08 3.79 66.81 4.40L66.81 4.40L66.81 4.40Q67.54 5.00 67.93 5.94L67.93 5.94L67.93 5.94Q68.32 6.87 68.32 8.19Z"></path></g><!----><g data-v-423bf9ae="" id="517abcef-b637-4ef6-8c0b-7900e1387124" transform="matrix(2.994410458179972,0,0,2.994410458179972,152.08943266912044,-1.9385669710569857)" stroke="none" fill="black"><path d="M17.572 23.933l4.106 7.095L32 13.189h-8.981V7.582L11.51.972 0 7.582v13.222l11.51 6.611 6.062-3.482zm10.96-8.744l-6.855 11.846-6.855-11.846h13.71z"></path></g><!----><g data-v-423bf9ae="" id="139eaea5-1081-40bc-b7ef-108d3c5d477a" fill="black" transform="matrix(1.695111306599037,0,0,1.695111306599037,50.19667703118509,194.6988168774019)"><path d="M0.57 13.78L1.41 13.78L2.42 10.71L5.96 10.71L6.96 13.78L7.83 13.78L4.65 4.54L3.75 4.54ZM2.67 10.02L3.19 8.41C3.54 7.34 3.85 6.37 4.17 5.25L4.23 5.25C4.54 6.37 4.84 7.34 5.21 8.41L5.73 10.02ZM16.84 13.78L22.36 13.78L22.36 13.06L20.02 13.06L20.02 5.24L22.36 5.24L22.36 4.54L16.84 4.54L16.84 5.24L19.18 5.24L19.18 13.06L16.84 13.06ZM32.07 9.48L37.93 9.48L37.93 8.83L32.07 8.83ZM50.51 13.94C52.43 13.94 53.65 12.84 53.65 11.40C53.65 10.00 52.68 9.45 51.59 8.95L50.23 8.36C49.49 8.02 48.54 7.64 48.54 6.65C48.54 5.70 49.35 5.11 50.57 5.11C51.53 5.11 52.28 5.47 52.86 6.02L53.33 5.47C52.71 4.84 51.73 4.37 50.57 4.37C48.90 4.37 47.68 5.33 47.68 6.71C47.68 8.05 48.80 8.68 49.69 9.04L51.06 9.63C52.02 10.07 52.81 10.37 52.81 11.47C52.81 12.50 51.94 13.20 50.51 13.20C49.42 13.20 48.43 12.71 47.74 11.97L47.22 12.56C47.99 13.38 49.13 13.94 50.51 13.94ZM65.80 13.94C67.83 13.94 69.27 12.07 69.27 9.11C69.27 6.20 67.83 4.37 65.80 4.37C63.77 4.37 62.33 6.19 62.33 9.11C62.33 12.07 63.77 13.94 65.80 13.94ZM65.80 13.20C64.23 13.20 63.18 11.59 63.18 9.11C63.18 6.65 64.23 5.11 65.80 5.11C67.37 5.11 68.42 6.65 68.42 9.11C68.42 11.59 67.37 13.20 65.80 13.20ZM79.02 13.78L84.56 13.78L84.56 13.06L79.83 13.06L79.83 4.54L79.02 4.54ZM96.61 13.94C98.24 13.94 99.61 13.05 99.61 10.32L99.61 4.54L98.80 4.54L98.80 10.26C98.80 12.49 97.80 13.20 96.61 13.20C95.41 13.20 94.43 12.49 94.43 10.26L94.43 4.54L93.59 4.54L93.59 10.32C93.59 13.05 94.96 13.94 96.61 13.94ZM111.58 13.78L112.42 13.78L112.42 5.24L115.56 5.24L115.56 4.54L108.44 4.54L108.44 5.24L111.58 5.24ZM124.64 13.78L130.16 13.78L130.16 13.06L127.82 13.06L127.82 5.24L130.16 5.24L130.16 4.54L124.64 4.54L124.64 5.24L126.98 5.24L126.98 13.06L124.64 13.06ZM142.80 13.94C144.83 13.94 146.27 12.07 146.27 9.11C146.27 6.20 144.83 4.37 142.80 4.37C140.77 4.37 139.33 6.19 139.33 9.11C139.33 12.07 140.77 13.94 142.80 13.94ZM142.80 13.20C141.23 13.20 140.18 11.59 140.18 9.11C140.18 6.65 141.23 5.11 142.80 5.11C144.37 5.11 145.42 6.65 145.42 9.11C145.42 11.59 144.37 13.20 142.80 13.20ZM155.25 13.78L156.03 13.78L156.03 8.36C156.03 7.46 155.95 6.55 155.93 5.64L155.95 5.64L156.93 7.49L160.30 13.78L161.15 13.78L161.15 4.54L160.37 4.54L160.37 9.90C160.37 10.82 160.45 11.77 160.47 12.66L160.45 12.66L156.10 4.54L155.25 4.54ZM173.71 13.94C175.63 13.94 176.85 12.84 176.85 11.40C176.85 10.00 175.88 9.45 174.79 8.95L173.43 8.36C172.69 8.02 171.74 7.64 171.74 6.65C171.74 5.70 172.55 5.11 173.77 5.11C174.73 5.11 175.48 5.47 176.06 6.02L176.53 5.47C175.91 4.84 174.93 4.37 173.77 4.37C172.10 4.37 170.88 5.33 170.88 6.71C170.88 8.05 172.00 8.68 172.89 9.04L174.26 9.63C175.22 10.07 176.01 10.37 176.01 11.47C176.01 12.50 175.14 13.20 173.71 13.20C172.62 13.20 171.63 12.71 170.94 11.97L170.42 12.56C171.19 13.38 172.33 13.94 173.71 13.94Z"></path></g></svg>