<svg data-v-423bf9ae="" xmlns="http://www.w3.org/2000/svg" viewBox="0 0 398.4189587440674 60" class="font"><!----><!----><!----><g data-v-423bf9ae="" id="5a20cb03-fe2e-4792-b411-2ba91ffc455f" fill="black" transform="matrix(5.928853821986509,0,0,5.928853821986509,-6.640310507704186,-18.498023722931592)"><path d="M3.30 11.17L7.60 11.17L7.60 13.05L1.12 13.05L1.12 3.35L3.30 3.35L3.30 11.17ZM17.84 13.05L15.50 13.05L15.50 13.05Q15.34 12.54 15.16 12.01L15.16 12.01L15.16 12.01Q14.97 11.48 14.78 10.95L14.78 10.95L11.00 10.95L11.00 10.95Q10.82 11.48 10.63 12.01L10.63 12.01L10.63 12.01Q10.44 12.54 10.29 13.05L10.29 13.05L8.02 13.05L8.02 13.05Q8.57 11.48 9.06 10.15L9.06 10.15L9.06 10.15Q9.55 8.82 10.02 7.64L10.02 7.64L10.02 7.64Q10.49 6.47 10.94 5.41L10.94 5.41L10.94 5.41Q11.40 4.35 11.89 3.35L11.89 3.35L13.97 3.35L13.97 3.35Q14.45 4.35 14.91 5.41L14.91 5.41L14.91 5.41Q15.37 6.47 15.84 7.64L15.84 7.64L15.84 7.64Q16.31 8.82 16.80 10.15L16.80 10.15L16.80 10.15Q17.29 11.48 17.84 13.05L17.84 13.05ZM12.88 5.54L12.88 5.54L12.88 5.54Q12.81 5.75 12.67 6.12L12.67 6.12L12.67 6.12Q12.53 6.48 12.35 6.96L12.35 6.96L12.35 6.96Q12.17 7.43 11.95 8.01L11.95 8.01L11.95 8.01Q11.73 8.58 11.51 9.21L11.51 9.21L14.27 9.21L14.27 9.21Q14.04 8.58 13.83 8.01L13.83 8.01L13.83 8.01Q13.62 7.43 13.43 6.96L13.43 6.96L13.43 6.96Q13.24 6.48 13.10 6.12L13.10 6.12L13.10 6.12Q12.96 5.75 12.88 5.54ZM22.65 7.34L22.65 7.34L22.65 7.34Q23.24 6.34 23.77 5.35L23.77 5.35L23.77 5.35Q24.30 4.35 24.75 3.35L24.75 3.35L27.16 3.35L27.16 3.35Q26.36 4.91 25.51 6.38L25.51 6.38L25.51 6.38Q24.65 7.85 23.70 9.34L23.70 9.34L23.70 13.05L21.52 13.05L21.52 9.37L21.52 9.37Q20.57 7.88 19.70 6.40L19.70 6.40L19.70 6.40Q18.84 4.91 18.05 3.35L18.05 3.35L20.58 3.35L20.58 3.35Q21.03 4.35 21.55 5.35L21.55 5.35L21.55 5.35Q22.06 6.34 22.65 7.34ZM33.08 5.03L33.08 5.03L33.08 5.03Q31.56 5.03 30.88 5.87L30.88 5.87L30.88 5.87Q30.20 6.72 30.20 8.19L30.20 8.19L30.20 8.19Q30.20 8.90 30.37 9.48L30.37 9.48L30.37 9.48Q30.53 10.07 30.87 10.49L30.87 10.49L30.87 10.49Q31.21 10.91 31.71 11.14L31.71 11.14L31.71 11.14Q32.21 11.37 32.89 11.37L32.89 11.37L32.89 11.37Q33.25 11.37 33.51 11.35L33.51 11.35L33.51 11.35Q33.77 11.34 33.96 11.30L33.96 11.30L33.96 7.92L36.15 7.92L36.15 12.73L36.15 12.73Q35.76 12.88 34.89 13.05L34.89 13.05L34.89 13.05Q34.02 13.23 32.75 13.23L32.75 13.23L32.75 13.23Q31.65 13.23 30.76 12.89L30.76 12.89L30.76 12.89Q29.88 12.56 29.25 11.91L29.25 11.91L29.25 11.91Q28.62 11.27 28.27 10.33L28.27 10.33L28.27 10.33Q27.93 9.39 27.93 8.19L27.93 8.19L27.93 8.19Q27.93 6.97 28.31 6.03L28.31 6.03L28.31 6.03Q28.69 5.10 29.34 4.45L29.34 4.45L29.34 4.45Q30.00 3.79 30.89 3.46L30.89 3.46L30.89 3.46Q31.78 3.12 32.79 3.12L32.79 3.12L32.79 3.12Q33.47 3.12 34.03 3.21L34.03 3.21L34.03 3.21Q34.58 3.30 34.98 3.42L34.98 3.42L34.98 3.42Q35.38 3.54 35.64 3.67L35.64 3.67L35.64 3.67Q35.90 3.79 36.01 3.86L36.01 3.86L35.38 5.61L35.38 5.61Q34.93 5.38 34.35 5.20L34.35 5.20L34.35 5.20Q33.77 5.03 33.08 5.03ZM40.01 8.19L40.01 8.19L40.01 8.19Q40.01 8.90 40.19 9.48L40.19 9.48L40.19 9.48Q40.36 10.05 40.69 10.46L40.69 10.46L40.69 10.46Q41.02 10.88 41.50 11.10L41.50 11.10L41.50 11.10Q41.97 11.33 42.59 11.33L42.59 11.33L42.59 11.33Q43.19 11.33 43.67 11.10L43.67 11.10L43.67 11.10Q44.16 10.88 44.48 10.46L44.48 10.46L44.48 10.46Q44.81 10.05 44.99 9.48L44.99 9.48L44.99 9.48Q45.16 8.90 45.16 8.19L45.16 8.19L45.16 8.19Q45.16 7.48 44.99 6.89L44.99 6.89L44.99 6.89Q44.81 6.31 44.48 5.90L44.48 5.90L44.48 5.90Q44.16 5.49 43.67 5.26L43.67 5.26L43.67 5.26Q43.19 5.04 42.59 5.04L42.59 5.04L42.59 5.04Q41.97 5.04 41.50 5.27L41.50 5.27L41.50 5.27Q41.02 5.50 40.69 5.92L40.69 5.92L40.69 5.92Q40.36 6.33 40.19 6.91L40.19 6.91L40.19 6.91Q40.01 7.49 40.01 8.19ZM47.42 8.19L47.42 8.19L47.42 8.19Q47.42 9.44 47.05 10.38L47.05 10.38L47.05 10.38Q46.68 11.33 46.03 11.96L46.03 11.96L46.03 11.96Q45.39 12.60 44.50 12.92L44.50 12.92L44.50 12.92Q43.61 13.24 42.59 13.24L42.59 13.24L42.59 13.24Q41.59 13.24 40.71 12.92L40.71 12.92L40.71 12.92Q39.83 12.60 39.17 11.96L39.17 11.96L39.17 11.96Q38.51 11.33 38.14 10.38L38.14 10.38L38.14 10.38Q37.76 9.44 37.76 8.19L37.76 8.19L37.76 8.19Q37.76 6.94 38.15 6.00L38.15 6.00L38.15 6.00Q38.54 5.05 39.21 4.41L39.21 4.41L39.21 4.41Q39.87 3.77 40.75 3.44L40.75 3.44L40.75 3.44Q41.62 3.12 42.59 3.12L42.59 3.12L42.59 3.12Q43.58 3.12 44.46 3.44L44.46 3.44L44.46 3.44Q45.35 3.77 46.00 4.41L46.00 4.41L46.00 4.41Q46.66 5.05 47.04 6.00L47.04 6.00L47.04 6.00Q47.42 6.94 47.42 8.19ZM57.58 13.05L55.75 13.05L55.75 13.05Q54.81 11.38 53.72 9.76L53.72 9.76L53.72 9.76Q52.63 8.13 51.39 6.69L51.39 6.69L51.39 13.05L49.24 13.05L49.24 3.35L51.02 3.35L51.02 3.35Q51.48 3.81 52.04 4.48L52.04 4.48L52.04 4.48Q52.60 5.15 53.18 5.92L53.18 5.92L53.18 5.92Q53.76 6.68 54.33 7.50L54.33 7.50L54.33 7.50Q54.91 8.32 55.41 9.07L55.41 9.07L55.41 3.35L57.58 3.35L57.58 13.05ZM62.01 5.14L62.01 11.27L62.01 11.27Q62.16 11.28 62.36 11.29L62.36 11.29L62.36 11.29Q62.57 11.30 62.85 11.30L62.85 11.30L62.85 11.30Q64.48 11.30 65.28 10.47L65.28 10.47L65.28 10.47Q66.07 9.65 66.07 8.19L66.07 8.19L66.07 8.19Q66.07 6.66 65.31 5.88L65.31 5.88L65.31 5.88Q64.55 5.10 62.92 5.10L62.92 5.10L62.92 5.10Q62.69 5.10 62.45 5.10L62.45 5.10L62.45 5.10Q62.22 5.11 62.01 5.14L62.01 5.14ZM68.32 8.19L68.32 8.19L68.32 8.19Q68.32 9.45 67.93 10.39L67.93 10.39L67.93 10.39Q67.54 11.33 66.81 11.94L66.81 11.94L66.81 11.94Q66.09 12.56 65.06 12.87L65.06 12.87L65.06 12.87Q64.02 13.17 62.73 13.17L62.73 13.17L62.73 13.17Q62.15 13.17 61.36 13.13L61.36 13.13L61.36 13.13Q60.58 13.08 59.82 12.92L59.82 12.92L59.82 3.47L59.82 3.47Q60.58 3.33 61.40 3.28L61.40 3.28L61.40 3.28Q62.22 3.23 62.80 3.23L62.80 3.23L62.80 3.23Q64.05 3.23 65.06 3.51L65.06 3.51L65.06 3.51Q66.08 3.79 66.81 4.40L66.81 4.40L66.81 4.40Q67.54 5.00 67.93 5.94L67.93 5.94L67.93 5.94Q68.32 6.87 68.32 8.19Z"></path></g><!----><!----></svg>