<svg data-v-fde0c5aa="" xmlns="http://www.w3.org/2000/svg" viewBox="0 0 300 300" class="iconLeft"><!----><defs data-v-fde0c5aa=""><!----></defs><rect data-v-fde0c5aa="" fill="#000000" x="0" y="0" width="300px" height="300px" class="logo-background-square"></rect><defs data-v-fde0c5aa=""><!----></defs><g data-v-fde0c5aa="" id="ab23a924-982c-436e-b6c3-9b8f28f78da6" fill="#000000" transform="matrix(10.810911085978566,0,0,10.810911085978566,208.20372666871828,35.62055638010972)"><path d="M1.61 5.98L1.61 5.98L4.72 6.01L4.72 6.01Q4.80 6.01 4.79 6.09L4.79 6.09L4.03 14.73L4.03 14.73Q3.99 14.90 3.86 15.04L3.86 15.04L3.86 15.04Q3.74 15.18 3.57 15.18L3.57 15.18L0.41 15.18L0.41 15.18Q0.32 15.18 0.34 15.09L0.34 15.09L1.15 6.43L1.15 6.43Q1.19 6.26 1.32 6.12L1.32 6.12L1.32 6.12Q1.46 5.98 1.61 5.98ZM4.24 6.54L1.64 6.51L0.88 14.64L3.54 14.64L4.24 6.54Z"></path></g><defs data-v-fde0c5aa=""><linearGradient data-v-fde0c5aa="" gradientTransform="rotate(25)" id="e0b32ab6-1d31-414c-ba51-35efae9dbecc" x1="0%" y1="0%" x2="100%" y2="0%"><stop data-v-fde0c5aa="" offset="0%" stop-color="#FEFF47" stop-opacity="1"></stop><stop data-v-fde0c5aa="" offset="100%" stop-color="#00FFE9" stop-opacity="1"></stop></linearGradient></defs><g data-v-fde0c5aa="" id="8ae5908e-18e9-4db0-8c80-eb09560a4605" stroke="none" fill="url(#e0b32ab6-1d31-414c-ba51-35efae9dbecc)" transform="matrix(4.963753878442376,0,0,4.963753878442376,40,70.57993853664755)"><path d="M17.572 23.933l4.106 7.095L32 13.189h-8.981V7.582L11.51.972 0 7.582v13.222l11.51 6.611 6.062-3.482zm10.96-8.744l-6.855 11.846-6.855-11.846h13.71z"></path></g><!----></svg>