<svg data-v-423bf9ae="" xmlns="http://www.w3.org/2000/svg" viewBox="0 0 145 90" class="iconLeft"><!----><!----><!----><g data-v-423bf9ae="" id="66be2f6e-59fc-45c6-a1b7-7524e0a850d3" fill="#000000" transform="matrix(6.521738589598731,0,0,6.521738589598731,113.62745794146157,-23.99999832070418)"><path d="M1.61 5.98L1.61 5.98L4.72 6.01L4.72 6.01Q4.80 6.01 4.79 6.09L4.79 6.09L4.03 14.73L4.03 14.73Q3.99 14.90 3.86 15.04L3.86 15.04L3.86 15.04Q3.74 15.18 3.57 15.18L3.57 15.18L0.41 15.18L0.41 15.18Q0.32 15.18 0.34 15.09L0.34 15.09L1.15 6.43L1.15 6.43Q1.19 6.26 1.32 6.12L1.32 6.12L1.32 6.12Q1.46 5.98 1.61 5.98ZM4.24 6.54L1.64 6.51L0.88 14.64L3.54 14.64L4.24 6.54Z"></path></g><defs data-v-423bf9ae=""><linearGradient data-v-423bf9ae="" gradientTransform="rotate(25)" id="0030154e-811e-4ef7-a0b1-e56c2a420430" x1="0%" y1="0%" x2="100%" y2="0%"><stop data-v-423bf9ae="" offset="0%" style="stop-color: rgb(254, 255, 71); stop-opacity: 1;"></stop><stop data-v-423bf9ae="" offset="100%" style="stop-color: rgb(0, 255, 233); stop-opacity: 1;"></stop></linearGradient></defs><g data-v-423bf9ae="" id="ae8558bc-0826-4ea9-9608-9460b560fcca" transform="matrix(2.994410458179972,0,0,2.994410458179972,0.08943266912044834,-1.9385669710569857)" stroke="none" fill="url(#0030154e-811e-4ef7-a0b1-e56c2a420430)"><path d="M17.572 23.933l4.106 7.095L32 13.189h-8.981V7.582L11.51.972 0 7.582v13.222l11.51 6.611 6.062-3.482zm10.96-8.744l-6.855 11.846-6.855-11.846h13.71z"></path></g><!----></svg>