<svg data-v-fde0c5aa="" xmlns="http://www.w3.org/2000/svg" viewBox="0 0 300 300" class="font"><!----><defs data-v-fde0c5aa=""><!----></defs><rect data-v-fde0c5aa="" fill="#000000" x="0" y="0" width="300px" height="300px" class="logo-background-square"></rect><defs data-v-fde0c5aa=""><!----></defs><g data-v-fde0c5aa="" id="6f22fa8c-d75e-446c-ac0f-a32ca853ce54" fill="#000000" transform="matrix(23.913041495195348,0,0,23.913041495195348,88.69324491546507,-102.99998859737326)"><path d="M1.61 5.98L1.61 5.98L4.72 6.01L4.72 6.01Q4.80 6.01 4.79 6.09L4.79 6.09L4.03 14.73L4.03 14.73Q3.99 14.90 3.86 15.04L3.86 15.04L3.86 15.04Q3.74 15.18 3.57 15.18L3.57 15.18L0.41 15.18L0.41 15.18Q0.32 15.18 0.34 15.09L0.34 15.09L1.15 6.43L1.15 6.43Q1.19 6.26 1.32 6.12L1.32 6.12L1.32 6.12Q1.46 5.98 1.61 5.98ZM4.24 6.54L1.64 6.51L0.88 14.64L3.54 14.64L4.24 6.54Z"></path></g><!----><!----></svg>