<svg data-v-423bf9ae="" xmlns="http://www.w3.org/2000/svg" viewBox="0 0 491 90" class="iconLeft"><!----><!----><!----><g data-v-423bf9ae="" id="40bf31bf-5728-4fa0-a496-86e0176acf4a" fill="white" transform="matrix(5.917159562968884,0,0,5.917159562968884,108.72054196500096,-3.4615357287862665)"><path d="M2.56 11.87L7.04 11.87L7.04 13.05L1.20 13.05L1.20 3.35L2.56 3.35L2.56 11.87ZM16.44 13.05L14.95 13.05L14.95 13.05Q14.71 12.42 14.50 11.81L14.50 11.81L14.50 11.81Q14.29 11.20 14.07 10.57L14.07 10.57L9.67 10.57L8.79 13.05L7.38 13.05L7.38 13.05Q7.94 11.51 8.43 10.20L8.43 10.20L8.43 10.20Q8.92 8.89 9.39 7.71L9.39 7.71L9.39 7.71Q9.86 6.54 10.32 5.47L10.32 5.47L10.32 5.47Q10.78 4.40 11.28 3.35L11.28 3.35L12.53 3.35L12.53 3.35Q13.03 4.40 13.50 5.47L13.50 5.47L13.50 5.47Q13.96 6.54 14.43 7.71L14.43 7.71L14.43 7.71Q14.90 8.89 15.39 10.20L15.39 10.20L15.39 10.20Q15.88 11.51 16.44 13.05L16.44 13.05ZM10.07 9.45L13.68 9.45L13.68 9.45Q13.23 8.23 12.79 7.09L12.79 7.09L12.79 7.09Q12.35 5.95 11.87 4.90L11.87 4.90L11.87 4.90Q11.38 5.95 10.94 7.09L10.94 7.09L10.94 7.09Q10.50 8.23 10.07 9.45L10.07 9.45ZM21.42 13.05L20.06 13.05L20.06 9.16L20.06 9.16Q19.10 7.66 18.24 6.20L18.24 6.20L18.24 6.20Q17.39 4.75 16.63 3.35L16.63 3.35L18.23 3.35L18.23 3.35Q18.76 4.49 19.42 5.68L19.42 5.68L19.42 5.68Q20.08 6.86 20.78 7.95L20.78 7.95L20.78 7.95Q21.46 6.86 22.12 5.68L22.12 5.68L22.12 5.68Q22.78 4.49 23.32 3.35L23.32 3.35L24.84 3.35L24.84 3.35Q24.08 4.75 23.23 6.20L23.23 6.20L23.23 6.20Q22.37 7.64 21.42 9.13L21.42 9.13L21.42 13.05ZM32.05 11.89L32.05 8.27L33.40 8.27L33.40 12.81L33.40 12.81Q33.24 12.87 32.92 12.94L32.92 12.94L32.92 12.94Q32.61 13.01 32.19 13.08L32.19 13.08L32.19 13.08Q31.78 13.15 31.29 13.20L31.29 13.20L31.29 13.20Q30.80 13.24 30.30 13.24L30.30 13.24L30.30 13.24Q29.27 13.24 28.43 12.91L28.43 12.91L28.43 12.91Q27.59 12.57 26.99 11.93L26.99 11.93L26.99 11.93Q26.39 11.28 26.06 10.35L26.06 10.35L26.06 10.35Q25.73 9.41 25.73 8.19L25.73 8.19L25.73 8.19Q25.73 6.97 26.10 6.03L26.10 6.03L26.10 6.03Q26.47 5.08 27.10 4.44L27.10 4.44L27.10 4.44Q27.73 3.79 28.58 3.46L28.58 3.46L28.58 3.46Q29.43 3.12 30.39 3.12L30.39 3.12L30.39 3.12Q31.05 3.12 31.56 3.21L31.56 3.21L31.56 3.21Q32.07 3.29 32.44 3.40L32.44 3.40L32.44 3.40Q32.80 3.51 33.03 3.63L33.03 3.63L33.03 3.63Q33.26 3.74 33.35 3.79L33.35 3.79L32.91 4.93L32.91 4.93Q32.51 4.66 31.84 4.49L31.84 4.49L31.84 4.49Q31.16 4.31 30.46 4.31L30.46 4.31L30.46 4.31Q29.72 4.31 29.11 4.58L29.11 4.58L29.11 4.58Q28.50 4.84 28.08 5.35L28.08 5.35L28.08 5.35Q27.65 5.85 27.41 6.57L27.41 6.57L27.41 6.57Q27.17 7.29 27.17 8.19L27.17 8.19L27.17 8.19Q27.17 9.06 27.38 9.77L27.38 9.77L27.38 9.77Q27.58 10.49 27.99 11.00L27.99 11.00L27.99 11.00Q28.41 11.51 29.02 11.79L29.02 11.79L29.02 11.79Q29.62 12.07 30.45 12.07L30.45 12.07L30.45 12.07Q31.04 12.07 31.45 12.01L31.45 12.01L31.45 12.01Q31.86 11.94 32.05 11.89L32.05 11.89ZM35.14 8.19L35.14 8.19L35.14 8.19Q35.14 6.94 35.51 5.99L35.51 5.99L35.51 5.99Q35.88 5.04 36.52 4.40L36.52 4.40L36.52 4.40Q37.16 3.77 38.00 3.44L38.00 3.44L38.00 3.44Q38.85 3.12 39.80 3.12L39.80 3.12L39.80 3.12Q40.74 3.12 41.57 3.44L41.57 3.44L41.57 3.44Q42.41 3.77 43.04 4.40L43.04 4.40L43.04 4.40Q43.67 5.04 44.04 5.99L44.04 5.99L44.04 5.99Q44.41 6.94 44.41 8.19L44.41 8.19L44.41 8.19Q44.41 9.44 44.04 10.39L44.04 10.39L44.04 10.39Q43.67 11.34 43.04 11.98L43.04 11.98L43.04 11.98Q42.41 12.61 41.57 12.94L41.57 12.94L41.57 12.94Q40.74 13.26 39.80 13.26L39.80 13.26L39.80 13.26Q38.85 13.26 38.00 12.94L38.00 12.94L38.00 12.94Q37.16 12.61 36.52 11.98L36.52 11.98L36.52 11.98Q35.88 11.34 35.51 10.39L35.51 10.39L35.51 10.39Q35.14 9.44 35.14 8.19ZM36.57 8.19L36.57 8.19L36.57 8.19Q36.57 9.07 36.79 9.79L36.79 9.79L36.79 9.79Q37.02 10.51 37.43 11.02L37.43 11.02L37.43 11.02Q37.84 11.52 38.44 11.79L38.44 11.79L38.44 11.79Q39.03 12.07 39.77 12.07L39.77 12.07L39.77 12.07Q40.52 12.07 41.10 11.79L41.10 11.79L41.10 11.79Q41.69 11.52 42.11 11.02L42.11 11.02L42.11 11.02Q42.52 10.51 42.74 9.79L42.74 9.79L42.74 9.79Q42.97 9.07 42.97 8.19L42.97 8.19L42.97 8.19Q42.97 7.31 42.74 6.59L42.74 6.59L42.74 6.59Q42.52 5.87 42.11 5.36L42.11 5.36L42.11 5.36Q41.69 4.86 41.10 4.58L41.10 4.58L41.10 4.58Q40.52 4.31 39.77 4.31L39.77 4.31L39.77 4.31Q39.03 4.31 38.44 4.58L38.44 4.58L38.44 4.58Q37.84 4.86 37.43 5.36L37.43 5.36L37.43 5.36Q37.02 5.87 36.79 6.59L36.79 6.59L36.79 6.59Q36.57 7.31 36.57 8.19ZM54.21 13.05L53.07 13.05L53.07 13.05Q52.77 12.53 52.37 11.89L52.37 11.89L52.37 11.89Q51.97 11.24 51.51 10.55L51.51 10.55L51.51 10.55Q51.04 9.86 50.55 9.14L50.55 9.14L50.55 9.14Q50.05 8.43 49.56 7.76L49.56 7.76L49.56 7.76Q49.07 7.10 48.61 6.51L48.61 6.51L48.61 6.51Q48.15 5.92 47.75 5.47L47.75 5.47L47.75 13.05L46.42 13.05L46.42 3.35L47.50 3.35L47.50 3.35Q48.16 4.05 48.91 4.98L48.91 4.98L48.91 4.98Q49.66 5.91 50.39 6.89L50.39 6.89L50.39 6.89Q51.13 7.88 51.78 8.83L51.78 8.83L51.78 8.83Q52.43 9.79 52.88 10.53L52.88 10.53L52.88 3.35L54.21 3.35L54.21 13.05ZM64.58 8.19L64.58 8.19L64.58 8.19Q64.58 9.45 64.19 10.38L64.19 10.38L64.19 10.38Q63.80 11.31 63.08 11.92L63.08 11.92L63.08 11.92Q62.37 12.53 61.38 12.83L61.38 12.83L61.38 12.83Q60.38 13.13 59.19 13.13L59.19 13.13L59.19 13.13Q58.60 13.13 57.90 13.08L57.90 13.08L57.90 13.08Q57.19 13.03 56.62 12.89L56.62 12.89L56.62 3.49L56.62 3.49Q57.19 3.35 57.90 3.30L57.90 3.30L57.90 3.30Q58.60 3.25 59.19 3.25L59.19 3.25L59.19 3.25Q60.38 3.25 61.38 3.55L61.38 3.55L61.38 3.55Q62.37 3.85 63.08 4.46L63.08 4.46L63.08 4.46Q63.80 5.07 64.19 6.00L64.19 6.00L64.19 6.00Q64.58 6.93 64.58 8.19ZM59.30 11.94L59.30 11.94L59.30 11.94Q61.24 11.94 62.19 10.96L62.19 10.96L62.19 10.96Q63.14 9.97 63.14 8.19L63.14 8.19L63.14 8.19Q63.14 6.41 62.19 5.42L62.19 5.42L62.19 5.42Q61.24 4.44 59.30 4.44L59.30 4.44L59.30 4.44Q58.73 4.44 58.41 4.45L58.41 4.45L58.41 4.45Q58.10 4.47 57.97 4.48L57.97 4.48L57.97 11.90L57.97 11.90Q58.10 11.91 58.41 11.93L58.41 11.93L58.41 11.93Q58.73 11.94 59.30 11.94Z"></path></g><!----><g data-v-423bf9ae="" id="245a00c1-9d13-4429-9856-6a8e0ac7a043" transform="matrix(2.994410458179972,0,0,2.994410458179972,0.08943266912044834,-1.9385669710569857)" stroke="none" fill="white"><path d="M17.572 23.933l4.106 7.095L32 13.189h-8.981V7.582L11.51.972 0 7.582v13.222l11.51 6.611 6.062-3.482zm10.96-8.744l-6.855 11.846-6.855-11.846h13.71z"></path></g><!----></svg>